<?xml version="1.0" standalone="no"?>
<!DOCTYPE svg PUBLIC "-//W3C//DTD SVG 20010904//EN"
 "http://www.w3.org/TR/2001/REC-SVG-20010904/DTD/svg10.dtd">
<svg version="1.0" xmlns="http://www.w3.org/2000/svg"
 width="720.000000pt" height="720.000000pt" viewBox="0 0 720.000000 720.000000"
 preserveAspectRatio="xMidYMid meet">
<metadata>
Created by potrace 1.14, written by Peter Selinger 2001-2017
</metadata>
<g transform="translate(0.000000,720.000000) scale(0.100000,-0.100000)"
fill="#000000" stroke="none">
<path d="M0 3600 l0 -3600 3600 0 3600 0 0 3600 0 3600 -3600 0 -3600 0 0
-3600z m4247 1877 c3 -4 21 -7 39 -7 18 0 35 -4 38 -9 3 -5 15 -7 25 -4 10 3
22 0 25 -6 4 -6 15 -11 25 -11 9 0 41 -11 69 -25 29 -14 59 -25 67 -25 8 0 15
-4 15 -10 0 -5 5 -10 10 -10 58 0 390 -305 390 -358 0 -6 4 -12 8 -14 5 -1 25
-39 46 -83 21 -44 45 -92 52 -107 8 -14 14 -36 14 -48 0 -11 8 -40 19 -63 20
-44 76 -461 65 -479 -6 -10 -13 -94 -14 -165 0 -18 -5 -35 -10 -38 -6 -3 -10
-17 -10 -30 0 -23 -20 -95 -39 -140 -90 -212 -205 -362 -377 -491 -79 -60
-192 -124 -218 -124 -7 0 -19 -7 -26 -15 -7 -8 -23 -15 -37 -15 -13 0 -43 -8
-66 -19 -23 -10 -69 -22 -102 -26 -33 -4 -71 -13 -85 -20 -24 -13 -171 -34
-760 -109 -230 -29 -245 -33 -243 -51 2 -11 39 -312 83 -670 44 -357 82 -659
84 -670 3 -11 1 -26 -3 -34 -6 -9 -116 -26 -362 -57 -195 -24 -368 -44 -385
-44 -29 0 -32 3 -37 38 -20 132 -460 3723 -456 3726 2 2 375 50 829 106 454
55 852 105 885 109 71 9 432 8 442 -2z"/>
<path d="M3685 4790 c-33 -4 -94 -8 -135 -9 -41 0 -194 -15 -338 -33 l-264
-31 5 -26 c3 -14 34 -255 68 -536 34 -280 63 -511 63 -511 1 -2 191 22 336 41
63 9 158 25 210 36 52 11 138 26 191 34 53 8 109 21 125 30 16 8 37 15 46 15
20 0 101 40 106 52 2 4 9 8 16 8 7 0 38 25 69 55 60 59 127 178 127 226 0 15
4 30 9 33 11 7 6 184 -6 216 -6 14 -13 46 -17 73 -4 26 -11 47 -16 47 -4 0
-11 12 -14 26 -8 31 -15 40 -86 113 -116 120 -282 167 -495 141z"/>
</g>
</svg>
